<?xml version="1.0" encoding="utf-8"?>
<!-- Generator: Adobe Illustrator 20.1.0, SVG Export Plug-In . SVG Version: 6.00 Build 0)  -->
<svg version="1.1" id="Layer_1" xmlns="http://www.w3.org/2000/svg" xmlns:xlink="http://www.w3.org/1999/xlink" x="0px" y="0px"
	 viewBox="0 0 360.7 202.7" style="enable-background:new 0 0 360.7 202.7;" xml:space="preserve">
<style type="text/css">
	.st0{fill:#FFFFFF;}
</style>
<path class="st0" d="M81.6,199.9c-2.5,2-5.6,3.1-9,3.1c-7.9,0-14.5-6.3-14.5-14.4c0-8,6.6-14.4,14.5-14.4c3.4,0,6.5,1.2,9,3.2
	l-3.6,3.6c-1.6-1.1-3.4-1.7-5.4-1.7c-5.2,0-9.3,4.1-9.3,9.3c0,5.2,4.1,9.3,9.3,9.3c1.9,0,3.8-0.6,5.4-1.7L81.6,199.9z"/>
<path class="st0" d="M111.6,202.7l-2.5-6.5H97.6l-2.5,6.5h-5.5l11-28h5.5l11,28H111.6z M107,191l-3.6-10l-3.7,10H107z"/>
<path class="st0" d="M145.2,174.7h5.2v28h-6l-12.8-19.9v19.9h-5.2v-28h6l12.8,19.9V174.7z"/>
<path class="st0" d="M174.5,174.7c4.3,0,7.8,3.4,7.8,7.7c0,2.2-0.9,4.3-2.5,5.6c2.2,1.4,3.6,3.9,3.6,6.7c0,4.4-3.6,8-8.1,8h-12.7
	v-28H174.5z M167.9,185.9h5.1c2.1,0,3.7-1.1,3.7-3.1c0-2-1.6-3.1-3.7-3.1h-5.1V185.9z M167.9,197.7h6.2c2.1,0,3.8-1.3,3.8-3.4
	c0-2-1.7-3.4-3.8-3.4h-6.2V197.7z"/>
<path class="st0" d="M199,179.5v6.5h10.8v4.8H199v7.1h11.6v4.8h-16.8v-28h16.4v4.8H199z"/>
<path class="st0" d="M231.8,174.6c5.9,0,8.8,3.6,8.8,8.5c0,4.1-2,7.3-6.2,8.2l7.4,11.3h-6.1l-7.2-11h-2v11h-5.2v-28.1H231.8z
	 M226.6,186.6h5c2.6,0,3.8-1.6,3.8-3.5c0-1.9-1.6-3.5-3.7-3.5h-5V186.6z"/>
<path class="st0" d="M262.7,174.6c5.9,0,8.8,3.6,8.8,8.5c0,4.1-2,7.3-6.2,8.2l7.4,11.3h-6.1l-7.2-11h-2v11h-5.2v-28.1H262.7z
	 M257.5,186.6h5c2.6,0,3.8-1.6,3.8-3.5c0-1.9-1.6-3.5-3.7-3.5h-5V186.6z"/>
<path class="st0" d="M303.6,202.7l-2.5-6.5h-11.4l-2.5,6.5h-5.5l11-28h5.5l11,28H303.6z M299,191l-3.6-10l-3.7,10H299z"/>
<g>
	<path class="st0" d="M16.2,27.1C6.1,39.6,0,55.5,0,72.8c0,40.1,32.6,72.7,72.7,72.7h34.8L16.2,27.1z"/>
	<path class="st0" d="M107.7,0.1h-35C51.9,0.1,33,9,19.8,23.1l35.1,45.6L107.7,0.1z"/>
	<polygon class="st0" points="111.6,142.3 111.6,3.3 58,72.8 	"/>
	<path class="st0" d="M133.4,3.5l0,142h57c15.5,0,29.1-8.1,36.9-20.2L133.4,3.5z"/>
	<path class="st0" d="M234.1,43.8c0-24.1-19.6-43.8-43.8-43.8h-53.1l92.7,120.3c2.7-5.6,4.1-11.9,4.1-18.5c0-10.8-3.9-21-11-29
		C230.2,64.8,234.1,54.5,234.1,43.8z"/>
	<polygon class="st0" points="360.7,145.5 308,77.1 255.2,145.5 	"/>
	<polygon class="st0" points="304.8,72.9 251.3,3.4 251.3,142.2 	"/>
	<path class="st0" d="M321.3,85.8c18.4-5.4,31.4-22.5,31.4-42C352.7,19.7,333,0,308.9,0h-53.6L321.3,85.8z"/>
</g>
</svg>
